<?xml version="1.0" encoding="UTF-8" standalone="no"?>
<svg
   xmlns:dc="http://purl.org/dc/elements/1.1/"
   xmlns:cc="http://creativecommons.org/ns#"
   xmlns:rdf="http://www.w3.org/1999/02/22-rdf-syntax-ns#"
   xmlns:svg="http://www.w3.org/2000/svg"
   xmlns="http://www.w3.org/2000/svg"
   xmlns:sodipodi="http://sodipodi.sourceforge.net/DTD/sodipodi-0.dtd"
   xmlns:inkscape="http://www.inkscape.org/namespaces/inkscape"
   width="92"
   height="60"
   viewBox="0 0 24.341666 15.875"
   version="1.1"
   id="svg842"
   inkscape:version="1.0.1 (3bc2e813f5, 2020-09-07, custom)"
   sodipodi:docname="abgd-logo.svg">
  <defs
     id="defs836" />
  <sodipodi:namedview
     id="base"
     pagecolor="#ffffff"
     bordercolor="#666666"
     borderopacity="1.0"
     inkscape:pageopacity="0.0"
     inkscape:pageshadow="2"
     inkscape:zoom="11.2"
     inkscape:cx="49.530759"
     inkscape:cy="33.764642"
     inkscape:document-units="px"
     inkscape:current-layer="layer1"
     inkscape:document-rotation="0"
     showgrid="true"
     units="px"
     width="100px"
     inkscape:snap-global="true"
     inkscape:object-nodes="false"
     inkscape:snap-others="false"
     inkscape:snap-bbox="true"
     inkscape:snap-nodes="false"
     inkscape:bbox-paths="true"
     inkscape:bbox-nodes="true"
     inkscape:snap-bbox-edge-midpoints="true"
     inkscape:window-width="1920"
     inkscape:window-height="1056"
     inkscape:window-x="0"
     inkscape:window-y="0"
     inkscape:window-maximized="1">
    <inkscape:grid
       type="xygrid"
       id="grid1477" />
  </sodipodi:namedview>
  <metadata
     id="metadata839">
    <rdf:RDF>
      <cc:Work
         rdf:about="">
        <dc:format>image/svg+xml</dc:format>
        <dc:type
           rdf:resource="http://purl.org/dc/dcmitype/StillImage" />
        <dc:title></dc:title>
      </cc:Work>
    </rdf:RDF>
  </metadata>
  <g
     inkscape:label="Layer 1"
     inkscape:groupmode="layer"
     id="layer1">
    <path
       style="fill:none;stroke:#ffa500;stroke-width:0.79375;stroke-linecap:butt;stroke-linejoin:miter;stroke-miterlimit:4;stroke-dasharray:none;stroke-opacity:1"
       d="M 15.944207,10.242037 C 14.226796,9.9244943 12.205392,9.2290311 10.191831,7.2679088 8.3572853,5.4811414 8.0001063,3.4571844 6.1073883,1.7023309 4.8927205,0.57613878 3.7420106,1.4954981 3.2966744,1.8052592"
       id="path1475"
       sodipodi:nodetypes="cssc" />
    <path
       style="fill:#000000;fill-opacity:1;stroke-width:1.00001"
       d="m 14.166168,15.409253 c -0.854093,-0.139949 -1.419314,-0.661066 -1.61435,-1.488384 -0.0662,-0.280812 -0.06559,-0.921609 0.0012,-1.205659 0.159234,-0.67763 0.644687,-1.201068 1.293527,-1.394737 0.274782,-0.08202 0.803395,-0.101058 1.134696,-0.04087 0.540141,0.09813 0.887436,0.341156 1.102844,0.77173 0.101845,0.203575 0.151572,0.394692 0.102696,0.394692 -0.0084,0 -0.176149,0.03108 -0.372966,0.06906 -0.364429,0.07033 -0.453113,0.06001 -0.453113,-0.05272 0,-0.08086 -0.301979,-0.378822 -0.439829,-0.43398 -0.217047,-0.08684 -0.491224,-0.102434 -0.729222,-0.04146 -0.541505,0.138728 -0.806859,0.507502 -0.841462,1.169417 -0.03077,0.588531 0.09569,1.01054 0.381829,1.2743 0.381257,0.351431 0.897955,0.389013 1.457625,0.10602 0.103335,-0.05225 0.206587,-0.131412 0.229447,-0.175915 0.04616,-0.08985 0.05603,-0.360918 0.01547,-0.424746 -0.01774,-0.02793 -0.165063,-0.04402 -0.462143,-0.05047 l -0.43609,-0.0095 v -0.336478 -0.336479 h 0.858021 0.858021 l 0.009,0.811519 0.009,0.81152 -0.119815,0.09139 c -0.174302,0.132947 -0.704134,0.372973 -0.962891,0.436214 -0.267755,0.06544 -0.788247,0.09372 -1.021464,0.05551 z M 1.8521691,15.341569 c -0.016233,-0.02627 2.2775832,-5.9805055 2.3760924,-6.1678053 0.027914,-0.053081 0.097132,-0.058884 0.7015596,-0.058884 0.6044777,0 0.6736305,0.00575 0.7014281,0.058884 0.1222192,0.2333742 2.4305716,6.1102893 2.4154727,6.1496353 -0.016033,0.04178 -0.1236533,0.04999 -0.6554283,0.04999 -0.4681698,0 -0.6453576,-0.01111 -0.6707372,-0.04206 C 6.7015871,15.308203 6.5766713,15.00158 6.4429676,14.64996 6.309264,14.298339 6.176192,13.991723 6.1472524,13.96859 6.1074394,13.93676 5.811178,13.92653 4.9298211,13.92653 c -0.8800873,0 -1.1782577,0.01028 -1.2198118,0.04206 -0.030249,0.02313 -0.1616023,0.336275 -0.2918968,0.695874 -0.1302945,0.359597 -0.2560696,0.665982 -0.2795003,0.680853 -0.060672,0.03852 -1.2624893,0.03501 -1.2864431,-0.0038 z M 5.7223909,12.8403 c 0.016619,-0.04331 -0.7396372,-2.1019 -0.7920378,-2.155993 -0.01537,-0.01587 -0.043504,2.35e-4 -0.062522,0.03576 -0.077234,0.144313 -0.7757667,2.108075 -0.759328,2.134674 0.00976,0.01578 0.3731484,0.02871 0.807536,0.02871 0.611384,0 0.7935358,-0.0098 0.8063519,-0.04314 z m 2.8568521,2.491028 c -0.00885,-0.02313 -0.012157,-0.935411 -0.00735,-2.027286 l 0.00873,-1.985225 0.9421412,-0.0095 c 0.5181788,-0.0052 1.0662948,0.0055 1.2180388,0.0238 0.455111,0.05486 0.74367,0.245813 0.90953,0.60189 0.07134,0.153162 0.08142,0.215947 0.07022,0.437423 -0.01599,0.315848 -0.08595,0.472544 -0.30532,0.683716 l -0.161992,0.155939 0.181026,0.102165 c 0.208332,0.117575 0.342496,0.263454 0.436147,0.47423 0.09315,0.209645 0.07138,0.693721 -0.04101,0.911889 -0.135931,0.263864 -0.26391,0.396099 -0.492054,0.508414 -0.190045,0.09356 -0.266887,0.110331 -0.612177,0.13361 -0.672445,0.04534 -2.1272057,0.0378 -2.1459172,-0.01113 z m 2.265684,-0.741886 c 0.151804,-0.08288 0.24218,-0.242463 0.242333,-0.427903 1.69e-4,-0.219113 -0.09143,-0.370921 -0.281541,-0.466556 -0.149755,-0.07534 -0.196965,-0.08037 -0.788423,-0.08412 l -0.6291293,-0.004 -0.00936,0.486347 c -0.00517,0.26749 -0.00146,0.507107 0.00829,0.532482 0.014367,0.03744 0.1428582,0.04407 0.6823353,0.03519 0.562488,-0.0093 0.681667,-0.02024 0.775476,-0.07146 z m -0.141075,-1.746373 c 0.150619,-0.08245 0.228073,-0.218746 0.228161,-0.401491 1.01e-4,-0.193223 -0.07898,-0.320914 -0.240504,-0.388406 -0.132545,-0.05538 -1.0723363,-0.105492 -1.2311022,-0.06564 l -0.089063,0.02236 v 0.431173 c 0,0.237146 0.011266,0.44244 0.025038,0.456212 0.013772,0.01377 0.2901047,0.02006 0.6140752,0.01398 0.475729,-0.0089 0.609111,-0.02204 0.693396,-0.06818 z m 6.578689,2.484598 c -0.02769,-0.03337 -0.03562,-0.876699 -0.02936,-3.120842 l 0.0086,-3.075122 1.463684,-0.00917 c 0.889862,-0.00556 1.55289,0.00449 1.691229,0.025604 0.77815,0.1191378 1.371262,0.5645906 1.725456,1.295894 0.283516,0.585373 0.371134,1.105078 0.342207,2.029767 -0.0229,0.732032 -0.08625,1.015167 -0.346478,1.548441 -0.158357,0.324515 -0.224982,0.420505 -0.445,0.641117 -0.404335,0.405425 -0.85906,0.606947 -1.52338,0.67512 -0.187431,0.01924 -0.905133,0.03497 -1.594894,0.03497 -1.015811,0 -1.261322,-0.0087 -1.292058,-0.04572 z m 2.788834,-1.065842 c 0.730665,-0.114662 1.033085,-0.563663 1.107052,-1.643633 0.02935,-0.428519 -0.0011,-1.050629 -0.06481,-1.325641 -0.09978,-0.430492 -0.350258,-0.787282 -0.66255,-0.943763 -0.273708,-0.137149 -0.477852,-0.165667 -1.216731,-0.169963 l -0.693942,-0.0041 -0.0087,2.018873 c -0.0049,1.110381 -0.0016,2.037802 0.0074,2.060934 0.02031,0.05309 1.204533,0.05867 1.532352,0.0072 z"
       id="path1466" />
    <path
       style="fill:none;stroke:#ff0000;stroke-width:0.79375;stroke-linecap:butt;stroke-linejoin:miter;stroke-miterlimit:4;stroke-dasharray:none;stroke-opacity:1"
       d="M 8.5024803,10.242037 C 10.219891,9.9244943 12.241295,9.2290311 14.254856,7.2679088 16.089401,5.4811414 16.44658,3.4571844 18.339298,1.7023309 19.553966,0.57613878 20.704677,1.4954981 21.150012,1.8052592"
       id="path1473"
       sodipodi:nodetypes="cssc" />
  </g>
</svg>
