<?xml version="1.0" encoding="UTF-8"?>
<svg width="92" height="60" version="1.1" viewBox="0 0 24.3 15.9" xmlns="http://www.w3.org/2000/svg" xmlns:cc="http://creativecommons.org/ns#" xmlns:dc="http://purl.org/dc/elements/1.1/" xmlns:rdf="http://www.w3.org/1999/02/22-rdf-syntax-ns#">
 <metadata>
  <rdf:RDF>
   <cc:Work rdf:about="">
    <dc:format>image/svg+xml</dc:format>
    <dc:type rdf:resource="http://purl.org/dc/dcmitype/StillImage"/>
    <dc:title/>
   </cc:Work>
  </rdf:RDF>
 </metadata>
 <path d="m15.9 10.2c-1.72-0.318-3.74-1.01-5.75-2.97-1.83-1.79-2.19-3.81-4.08-5.57-1.21-1.13-2.37-0.207-2.81 0.103" fill="none" stroke="#ffa500" stroke-width=".794"/>
 <path d="m14.2 15.4c-0.854-0.14-1.42-0.661-1.61-1.49-0.0662-0.281-0.0656-0.922 0.0012-1.21 0.159-0.678 0.645-1.2 1.29-1.39 0.275-0.082 0.803-0.101 1.13-0.0409 0.54 0.0981 0.887 0.341 1.1 0.772 0.102 0.204 0.152 0.395 0.103 0.395-0.0084 0-0.176 0.0311-0.373 0.0691-0.364 0.0703-0.453 0.06-0.453-0.0527 0-0.0809-0.302-0.379-0.44-0.434-0.217-0.0868-0.491-0.102-0.729-0.0415-0.542 0.139-0.807 0.508-0.841 1.17-0.0308 0.589 0.0957 1.01 0.382 1.27 0.381 0.351 0.898 0.389 1.46 0.106 0.103-0.0522 0.207-0.131 0.229-0.176 0.0462-0.0898 0.056-0.361 0.0155-0.425-0.0177-0.0279-0.165-0.044-0.462-0.0505l-0.436-0.0095v-0.673h1.72l0.018 1.62-0.12 0.0914c-0.174 0.133-0.704 0.373-0.963 0.436-0.268 0.0654-0.788 0.0937-1.02 0.0555zm-12.3-0.0677c-0.0162-0.0263 2.28-5.98 2.38-6.17 0.0279-0.0531 0.0971-0.0589 0.702-0.0589 0.604 0 0.674 0.00575 0.701 0.0589 0.122 0.233 2.43 6.11 2.42 6.15-0.016 0.0418-0.124 0.05-0.655 0.05-0.468 0-0.645-0.0111-0.671-0.0421-0.019-0.0231-0.144-0.33-0.278-0.681-0.134-0.352-0.267-0.658-0.296-0.681-0.0398-0.0318-0.336-0.0421-1.22-0.0421-0.88 0-1.18 0.0103-1.22 0.0421-0.0302 0.0231-0.162 0.336-0.292 0.696-0.13 0.36-0.256 0.666-0.28 0.681-0.0607 0.0385-1.26 0.035-1.29-0.0038zm3.87-2.5c0.0166-0.0433-0.74-2.1-0.792-2.16-0.0154-0.0159-0.0435 2.35e-4 -0.0625 0.0358-0.0772 0.144-0.776 2.11-0.759 2.13 0.00976 0.0158 0.373 0.0287 0.808 0.0287 0.611 0 0.794-0.0098 0.806-0.0431zm2.86 2.49c-0.00885-0.0231-0.0122-0.935-0.00735-2.03l0.00873-1.99 0.942-0.0095c0.518-0.0052 1.07 0.0055 1.22 0.0238 0.455 0.0549 0.744 0.246 0.91 0.602 0.0713 0.153 0.0814 0.216 0.0702 0.437-0.016 0.316-0.086 0.473-0.305 0.684l-0.162 0.156 0.181 0.102c0.208 0.118 0.342 0.263 0.436 0.474 0.0932 0.21 0.0714 0.694-0.041 0.912-0.136 0.264-0.264 0.396-0.492 0.508-0.19 0.0936-0.267 0.11-0.612 0.134-0.672 0.0453-2.13 0.0378-2.15-0.0111zm2.27-0.742c0.152-0.0829 0.242-0.242 0.242-0.428 1.69e-4 -0.219-0.0914-0.371-0.282-0.467-0.15-0.0753-0.197-0.0804-0.788-0.0841l-0.629-4e-3 -0.00936 0.486c-0.00517 0.267-0.00146 0.507 0.00829 0.532 0.0144 0.0374 0.143 0.0441 0.682 0.0352 0.562-0.0093 0.682-0.0202 0.775-0.0715zm-0.141-1.75c0.151-0.0824 0.228-0.219 0.228-0.401 1.01e-4 -0.193-0.079-0.321-0.241-0.388-0.133-0.0554-1.07-0.105-1.23-0.0656l-0.0891 0.0224v0.431c0 0.237 0.0113 0.442 0.025 0.456 0.0138 0.0138 0.29 0.0201 0.614 0.014 0.476-0.0089 0.609-0.022 0.693-0.0682zm6.58 2.48c-0.0277-0.0334-0.0356-0.877-0.0294-3.12l0.0086-3.08 1.46-0.00917c0.89-0.00556 1.55 0.00449 1.69 0.0256 0.778 0.119 1.37 0.565 1.73 1.3 0.284 0.585 0.371 1.11 0.342 2.03-0.0229 0.732-0.0862 1.02-0.346 1.55-0.158 0.325-0.225 0.421-0.445 0.641-0.404 0.405-0.859 0.607-1.52 0.675-0.187 0.0192-0.905 0.035-1.59 0.035-1.02 0-1.26-0.0087-1.29-0.0457zm2.79-1.07c0.731-0.115 1.03-0.564 1.11-1.64 0.0294-0.429-0.0011-1.05-0.0648-1.33-0.0998-0.43-0.35-0.787-0.663-0.944-0.274-0.137-0.478-0.166-1.22-0.17l-0.694-0.0041-0.0087 2.02c-0.0049 1.11-0.0016 2.04 0.0074 2.06 0.0203 0.0531 1.2 0.0587 1.53 0.0072z"/>
 <path d="m8.5 10.2c1.72-0.318 3.74-1.01 5.75-2.97 1.83-1.79 2.19-3.81 4.08-5.57 1.21-1.13 2.37-0.207 2.81 0.103" fill="none" stroke="#f00" stroke-width=".794"/>
</svg>
